<?xml version="1.0" encoding="utf-8"?>
<!-- Generator: Adobe Illustrator 24.0.1, SVG Export Plug-In . SVG Version: 6.00 Build 0)  -->
<svg version="1.1" id="ico" xmlns="http://www.w3.org/2000/svg" xmlns:xlink="http://www.w3.org/1999/xlink" x="0px" y="0px"
	 width="50px" height="50px" viewBox="0 0 50 50" style="enable-background:new 0 0 50 50;" xml:space="preserve">
<path d="M32.499,41.931c1.286,0,2.332-1.046,2.332-2.332V10.401c0-1.286-1.046-2.332-2.332-2.332H17.501
	c-1.286,0-2.332,1.046-2.332,2.332v29.197c0,1.286,1.046,2.332,2.332,2.332H32.499z M16.47,12.377H33.53v21.678H16.47V12.377z
	 M17.501,9.37h14.998c0.568,0,1.031,0.463,1.031,1.031v0.675H16.47v-0.675C16.47,9.833,16.933,9.37,17.501,9.37z M16.47,39.599
	v-4.243H33.53v4.243c0,0.568-0.463,1.031-1.031,1.031H17.501C16.933,40.63,16.47,40.167,16.47,39.599z M25,40.153
	c1.21,0,2.194-0.984,2.194-2.194S26.21,35.765,25,35.765s-2.194,0.984-2.194,2.194S23.79,40.153,25,40.153z M25,37.065
	c0.493,0,0.894,0.4,0.894,0.894s-0.4,0.894-0.894,0.894s-0.894-0.4-0.894-0.894S24.507,37.065,25,37.065z M30.429,20.35h-2.43v-2.43
	c0-0.359-0.291-0.65-0.65-0.65h-4.697c-0.359,0-0.65,0.291-0.65,0.65v2.43h-2.43c-0.359,0-0.65,0.291-0.65,0.65v4.697
	c0,0.359,0.291,0.65,0.65,0.65h2.43v2.43c0,0.359,0.291,0.65,0.65,0.65h4.697c0.359,0,0.65-0.291,0.65-0.65v-2.43h2.43
	c0.359,0,0.65-0.291,0.65-0.65V21C31.079,20.641,30.788,20.35,30.429,20.35z M29.778,25.047h-2.43c-0.359,0-0.65,0.291-0.65,0.65
	v2.43h-3.396v-2.43c0-0.359-0.291-0.65-0.65-0.65h-2.43V21.65h2.43c0.359,0,0.65-0.291,0.65-0.65v-2.43h3.396V21
	c0,0.359,0.291,0.65,0.65,0.65h2.43V25.047z"/>
</svg>
