<?xml version="1.0" ?><svg viewBox="0 0 22.575 22.576" xmlns="http://www.w3.org/2000/svg"><g data-name="Layer 2" id="Layer_2"><g data-name="Layer 1" id="Layer_1-2"><path d="M21.321,4.105H17.673a.342.342,0,0,0,0,.684h3.648a.57.57,0,0,1,.57.57V17.331H.684V5.359a.57.57,0,0,1,.57-.57H4.9a.342.342,0,0,0,0-.684H1.254A1.255,1.255,0,0,0,0,5.359V19.041A1.256,1.256,0,0,0,1.254,20.3H6.841v1.6h-2.4a.342.342,0,0,0,0,.683H18.129a.342.342,0,1,0,0-.683h-2.4V20.3h5.587a1.256,1.256,0,0,0,1.254-1.255V5.359A1.255,1.255,0,0,0,21.321,4.105ZM15.05,21.892H7.525V20.3H15.05Zm6.841-2.851a.57.57,0,0,1-.57.57H1.254c-.807-.02-.522-1.089-.57-1.6H21.891ZM16.974,6.511c-.318-.309.172-.79.484-.483S17.282,6.829,16.974,6.511Zm1.838.1a.342.342,0,0,1,0-.684A.342.342,0,0,1,18.812,6.612Zm1.6,0c-.641-.061-.26-.985.242-.584A.345.345,0,0,1,20.408,6.612ZM7.753,9.919A3.544,3.544,0,0,1,9.218,7.054a.342.342,0,0,1,.442.035c.071.07,1.848,2.562,1.9,2.63a.342.342,0,0,1-.555.4L9.354,7.826a2.85,2.85,0,1,0,1.934-.757.342.342,0,1,1,0-.684A3.535,3.535,0,1,1,7.753,9.919Zm-2.28,0a5.813,5.813,0,1,0,9.575-4.427l1.318-1.751a.342.342,0,1,0-.547-.412L14.5,5.078a5.782,5.782,0,0,0-2.874-.956V3.386a1.71,1.71,0,1,0-.683,0v.736a5.778,5.778,0,0,0-2.873.956L6.756,3.329a.342.342,0,1,0-.547.412L7.527,5.492A5.8,5.8,0,0,0,5.473,9.919ZM10.262,1.71a1.024,1.024,0,1,1,1.367.964c-.01-.284.1-.851-.341-.85s-.332.567-.342.85A1.025,1.025,0,0,1,10.262,1.71Zm1.026,3.079a5.131,5.131,0,1,1-5.131,5.13A5.137,5.137,0,0,1,11.288,4.789Z" data-name="speed optimization" id="speed_optimization"/></g></g></svg>